@startuml

class AlternativeWayToImplement {
    description: String [1]
    score: Number [0..1]
    id: [1]
}
AlternativeWayToImplement "1" -* "1" Documentation : contains

class Competence {
    iCan: String [1]
    id: String [1]
}

Competence "1..*" -- "1..*" LearningOutcome : matches

class CompetenceGrid {
    fieldOfCompetences: String [1]
    id: String [1]
}
CompetenceGrid "1" *- "1..*" Competence : contains

class Curriculum {
    name: String [1]
    id: String [1]
}
Curriculum "*" -- "*" CompetenceGrid : matches
Curriculum "1" *- "1..*" Unit : contains

class Documentation {
    passed: Boolean
    mark: String
    evaluations: Evaluation [*]
    id: String [1]
}
Documentation "1" *- "1" Competence : proofs
Documentation "*" -- "*" LearningOutcome : matches

class Evaluation {
    id: String [1]
    evaluationNotes: String [*]
}
Evaluation "1" *- "*" Documentation : assesses >

class Implementation {
    description: image | text | file [*]
    score: Number [0..1]
    id: String [1]
}
Implementation "1" -* "1" Documentation

class Instructor extends User {
    evaluate(): Evaluation
}
Instructor "1" -- "*" Evaluation : creates >

class LearningOutcome {
    name: String [1]
    id: String [1]
}

class LiteratureList {
    id: String [1]
}
LiteratureList "1" *- "*" LiteratureListEntry : contains >
LiteratureList "1" *- "1" CompetenceGrid : belongsTo >

class LiteratureListEntry {
    title: String [1]
    description: String [1]
    sources: String [*]
    id: String [1]
}
LiteratureListEntry "1..*" -- "1..*" Competence : explains >


class ReflectionOnImplementation {
    description: String [1]
    score: Number [0..1]
    id: String [1]
}
ReflectionOnImplementation "1" -* "1" Documentation

class StepByStepInstruction {
    description: String [1]
    score: Number [0..1]
    id: String [1]
}
StepByStepInstruction "1" -* "1" Documentation

class Trainee extends User {
    enroll(): Boolean
}
Trainee "1" -- "*" Curriculum : enrolls >
Trainee "1" -- "*" Documentation : committs >
Trainee "1" -- "*" Competence : has >


class Unit {
    name: String [1]
    id: String [1]
}
Unit "1" *- "*" LearningOutcome : contains

class User {
    name: String [1]
    id: Number [1]
}

@enduml
